<svg xmlns="http://www.w3.org/2000/svg" viewBox="0 0 640 640" width="640" height="640"><g id="icon"><path d="M320.2 25C295.6 28.4 280.9 49.4 285.2 75.4 288.3 93.7 293.7 129.6 293.5 129.8 293.4 129.9 288.1 128.8 281.8 127.2 227.5 114 226.4 113.8 220.8 113.8 198.2 113.8 183.3 127.4 180.3 150.8L179.9 153.8 177 153.8C157.6 153.8 141 169.7 139.5 189.7L139.1 195.2 134.1 196.1C112.1 199.8 98 222.5 103.5 245.6 104 247.8 104.3 249.6 104.2 249.7 104.1 249.8 93.4 246.5 80.3 242.4L56.6 234.8 49.1 234.7C6.8 234.5-1.3 291.9 39.2 304.7 42.9 305.9 58.5 310.8 73.8 315.6 109.2 326.9 128.8 333.1 168.4 345.6 186 351.2 202.3 356.4 204.7 357.3 228.2 365.9 220.5 365.3 304.1 365.5 356.6 365.7 376.2 365.5 378.7 365 383.1 364 387 360.3 388 356.1 390.4 346.5 386.5 180.4 383.5 161.9 382.6 156.9 378.5 130.7 374.3 103.8 365.9 49.4 366 50 359.9 41.3 351.7 29.5 335.6 22.9 320.2 25"/></g></svg>
